<?xml version="1.0" encoding="UTF-8" standalone="no"?>
<!-- Created with Inkscape (http://www.inkscape.org/) -->

<svg
   width="296.99997mm"
   height="71mm"
   viewBox="0 0 1122.5196 268.34628"
   version="1.1"
   id="svg1"
   xml:space="preserve"
   xmlns="http://www.w3.org/2000/svg"
   xmlns:svg="http://www.w3.org/2000/svg"><defs
     id="defs1" /><g
     id="layer1"><path
       style="font-size:229.565px;font-family:'Super Malibu';-inkscape-font-specification:'Super Malibu';fill:#4d4d4d;fill-rule:evenodd;stroke-width:24.1489;stroke-linecap:round;stroke-linejoin:round"
       d="m 1044.6936,240.28045 c -11.3108,0 -21.2076,-2.32066 -29.6908,-6.96196 -8.4086,-4.72419 -15.44062,-11.0231 -21.09595,-18.89673 -5.58094,-7.95652 -9.78525,-16.86616 -12.61293,-26.72892 -2.75328,-9.94564 -4.12992,-20.09848 -4.12992,-30.45854 0,-10.44292 1.41384,-20.63721 4.24152,-30.58286 2.8277,-9.94564 7.032,-18.89672 12.61296,-26.853252 5.6553,-7.95651 12.68732,-14.29686 21.09602,-19.02104 8.4831,-4.72419 18.3428,-7.08627 29.5791,-7.08627 11.3851,0 21.3564,2.36208 29.9138,7.08627 8.5575,4.64131 15.6639,10.89877 21.3194,18.77241 5.6553,7.790762 9.8968,16.617522 12.7245,26.480282 2.8277,9.86276 4.2416,19.97417 4.2416,30.33421 0,10.44293 -1.4511,20.67866 -4.3532,30.70719 -2.8277,9.94564 -7.1064,18.93817 -12.8362,26.97757 -5.6553,7.9565 -12.7618,14.3383 -21.3193,19.14536 -8.483,4.72419 -18.3799,7.08628 -29.6906,7.08628 z m 0.2232,-56.69018 c 4.9857,0 9.4876,-2.52785 13.5059,-7.58356 4.0927,-5.13859 6.2507,-12.59782 6.4739,-22.3777 0,-6.71331 -0.8929,-12.2663 -2.6788,-16.65896 -1.786,-4.39265 -4.1299,-7.66644 -7.032,-9.82132 -2.8277,-2.23777 -5.8042,-3.35665 -8.9296,-3.35665 -4.8368,0 -9.2644,2.61073 -13.2827,7.83219 -3.9438,5.22145 -6.0274,13.05366 -6.2506,23.49658 0,6.38179 0.8557,11.68614 2.5673,15.91303 1.7859,4.22691 4.0555,7.37636 6.8087,9.44837 2.7532,2.07202 5.6926,3.10802 8.8179,3.10802 z"
       id="path14" /><path
       style="font-size:229.565px;font-family:'Super Malibu';-inkscape-font-specification:'Super Malibu';fill:#4d4d4d;fill-rule:evenodd;stroke-width:17.4503;stroke-linecap:round;stroke-linejoin:round"
       d="m 936.33635,107.13625 c -7.28358,-1.86406 -13.0408,-5.47193 -17.27171,-10.823592 -4.17735,-5.35166 -6.26601,-10.40266 -6.26601,-15.15301 0,-3.00656 0.85688,-5.44186 2.57066,-7.30592 1.71379,-1.86406 4.41836,-2.88628 8.11369,-3.0667 2.03511,0 4.09702,0.72159 6.18569,2.16473 2.14224,1.44313 4.07023,3.75819 5.784,6.94513 4.55225,-8.11768 9.88103,-12.17653 15.98639,-12.17653 3.42756,0.0602 5.99823,1.08237 7.71201,3.06667 1.7138,1.92422 2.57068,4.38958 2.57068,7.39613 0,3.18695 -0.96401,6.64448 -2.89201,10.37261 -1.87445,3.72813 -4.68612,7.24578 -8.43502,10.55299 -3.74889,3.307202 -8.43502,5.983032 -14.05837,8.027492 z"
       id="path13" /><path
       style="font-size:229.565px;font-family:'Super Malibu';-inkscape-font-specification:'Super Malibu';fill:#4d4d4d;fill-rule:evenodd;stroke-width:24.1489;stroke-linecap:round;stroke-linejoin:round"
       d="m 933.96741,241.77229 c -8.55745,0 -14.84533,-1.28465 -18.86361,-3.85394 -4.0183,-2.65217 -6.21346,-7.37636 -6.58553,-14.17255 -0.74413,-11.76901 -1.11619,-24.40827 -1.11619,-37.91776 0,-17.7364 0.59531,-35.05841 1.78591,-51.966 0.22324,-2.73506 2.67885,-5.13858 7.36686,-7.2106 4.76241,-2.07201 11.68279,-3.10801 20.76114,-3.10801 9.07835,0 16.07315,0.91169 20.98439,2.73505 4.98565,1.74048 7.51568,4.35122 7.5901,7.83221 l 0.22323,12.80501 c 0.37206,12.76358 0.55809,27.30908 0.55809,43.63651 0,11.52037 -0.18603,23.53803 -0.55809,36.05297 -0.0743,4.64129 -2.71606,8.32947 -7.92495,11.06453 -5.13449,2.73505 -13.20826,4.10258 -24.22135,4.10258 z"
       id="path12" /><path
       style="font-size:229.565px;font-family:'Super Malibu';-inkscape-font-specification:'Super Malibu';fill:#4d4d4d;fill-rule:evenodd;stroke-width:24.1489;stroke-linecap:round;stroke-linejoin:round"
       d="m 858.95941,243.76141 c -5.06007,0 -9.9713,-0.78736 -14.73372,-2.36208 -4.688,-1.57474 -8.59467,-4.06115 -11.72001,-7.45924 -3.05091,-3.48098 -4.79962,-7.91507 -5.24609,-13.30229 -0.66971,-9.28261 -1.48825,-24.82268 -2.45562,-46.62022 -0.89296,-21.79753 -1.33944,-42.10323 -1.33944,-60.91708 0,-16.410312 0.63251,-28.262202 1.89753,-35.555682 1.41385,-4.80706 5.32052,-8.57811 11.72,-11.31317 6.3995,-2.81793 13.35709,-4.2269 20.87277,-4.2269 7.14363,0 13.61752,1.53329 19.42172,4.59986 5.80419,3.06658 9.18997,8.0394 10.15733,14.91847 1.04178,29.256772 1.89753,61.787332 2.56724,97.591642 l 0.89296,44.75541 c 0,4.14402 -1.56267,7.70788 -4.68801,10.69156 -3.12533,2.98369 -7.14361,5.2629 -12.05486,6.83764 -4.83682,1.57472 -9.93409,2.36208 -15.2918,2.36208 z"
       id="path11" /><path
       style="font-size:229.565px;font-family:'Super Malibu';-inkscape-font-specification:'Super Malibu';fill:#4d4d4d;fill-rule:evenodd;stroke-width:24.1489;stroke-linecap:round;stroke-linejoin:round"
       d="m 744.32658,240.28045 c -11.31072,0 -21.20761,-2.32066 -29.69066,-6.96196 -8.40864,-4.72419 -15.44063,-11.0231 -21.096,-18.89673 -5.58095,-7.95652 -9.78528,-16.86616 -12.61296,-26.72892 -2.75327,-9.94564 -4.1299,-20.09848 -4.1299,-30.45854 0,-10.44292 1.41385,-20.63721 4.24153,-30.58286 2.82768,-9.94564 7.03199,-18.89672 12.61295,-26.853252 5.65537,-7.95651 12.68736,-14.29686 21.096,-19.02104 8.48305,-4.72419 18.34273,-7.08627 29.57904,-7.08627 11.38515,0 21.35646,2.36208 29.91393,7.08627 8.55746,4.64131 15.66386,10.89877 21.31924,18.77241 5.65537,7.790762 9.89688,16.617522 12.72456,26.480282 2.82768,9.86276 4.24153,19.97417 4.24153,30.33421 0,10.44293 -1.45105,20.67866 -4.35314,30.70719 -2.82769,9.94564 -7.10642,18.93817 -12.83619,26.97757 -5.65537,7.9565 -12.76179,14.3383 -21.31925,19.14536 -8.48304,4.72419 -18.37993,7.08628 -29.69068,7.08628 z m 0.22325,-56.69018 c 4.98565,0 9.48762,-2.52785 13.5059,-7.58356 4.0927,-5.13859 6.25067,-12.59782 6.47392,-22.3777 0,-6.71331 -0.89296,-12.2663 -2.67887,-16.65896 -1.78589,-4.39265 -4.12989,-7.66644 -7.032,-9.82132 -2.82768,-2.23777 -5.80418,-3.35665 -8.92951,-3.35665 -4.83683,0 -9.26439,2.61073 -13.28269,7.83219 -3.94386,5.22145 -6.02742,13.05366 -6.25066,23.49658 0,6.38179 0.85574,11.68614 2.56724,15.91303 1.78591,4.22691 4.05548,7.37636 6.80876,9.44837 2.75327,2.07202 5.69257,3.10802 8.81791,3.10802 z"
       id="path10" /><path
       style="font-size:229.565px;font-family:'Super Malibu';-inkscape-font-specification:'Super Malibu';fill:#4d4d4d;fill-rule:evenodd;stroke-width:24.1489;stroke-linecap:round;stroke-linejoin:round"
       d="m 590.06908,243.76141 c -3.12534,0 -6.06464,-0.29008 -8.8179,-0.87023 -6.10185,-1.24322 -9.74808,-5.09715 -10.93868,-11.56182 -5.35772,-31.90894 -8.03656,-58.59642 -8.03656,-80.06244 0,-27.68204 4.65078,-48.85799 13.95238,-63.527822 10.49219,-16.57608 27.75593,-24.86411 51.79124,-24.86411 9.59924,0 18.04508,1.78193 25.33753,5.34578 7.36686,3.48099 13.09664,8.53669 17.18933,15.16711 4.16712,6.63044 6.25067,14.6284 6.25067,23.993872 0,11.4375 -2.23238,18.06793 -6.69714,19.8913 -2.45562,0.99456 -5.2089,1.49185 -8.25981,1.49185 l -8.59468,0.24863 c -4.09269,0 -7.7017,-0.49728 -10.82704,-1.49184 -3.05092,-0.99456 -4.87403,-2.94224 -5.46933,-5.84307 -0.59531,-3.23233 -1.82311,-6.00883 -3.68343,-8.32948 -1.86032,-2.32065 -3.75784,-3.48097 -5.69257,-3.48097 -1.48826,0 -2.90209,0.99456 -4.24153,2.98368 -1.33943,1.90626 -2.00914,5.42868 -2.00914,10.56726 0,2.15489 0.0743,4.4341 0.22323,6.83762 0.14883,2.32066 0.22324,4.84851 0.22324,7.58356 2.08356,-0.4144 4.688,-0.74592 7.81334,-0.99455 3.12533,-0.33152 5.8414,-0.49728 8.14819,-0.49728 3.05092,0 5.58096,1.11887 7.59009,3.35664 2.08356,2.23777 3.64623,5.09715 4.68801,8.57812 1.04178,3.3981 1.56266,6.92052 1.56266,10.56725 0,3.39809 -0.44647,6.58899 -1.33943,9.57269 -0.89295,2.98368 -2.26959,5.42866 -4.1299,7.3349 -1.7859,1.82337 -4.05549,2.73506 -6.80876,2.73506 -4.24153,0 -8.22261,0.12431 -11.94325,0.37296 l 0.44649,7.95651 c 0.52088,7.21059 0.78133,14.46263 0.78133,21.7561 0,6.38179 -0.40927,12.76359 -1.22782,19.14538 -0.81854,4.72418 -3.08812,8.24659 -6.80876,10.56724 -3.72063,2.32065 -8.33422,3.81251 -13.84076,4.47554 -5.43213,0.66305 -10.97587,0.99456 -16.63124,0.99456 z"
       id="path9" /><path
       style="font-size:229.565px;font-family:'Super Malibu';-inkscape-font-specification:'Super Malibu';fill:#4d4d4d;fill-rule:evenodd;stroke-width:24.1489;stroke-linecap:round;stroke-linejoin:round"
       d="m 505.68503,242.14525 c -10.12013,0 -19.34731,-1.90626 -27.68154,-5.71874 -8.25981,-3.89539 -14.84533,-9.90421 -19.75657,-18.02648 -3.64622,-6.29892 -6.4739,-13.67528 -8.48305,-22.12907 -1.93472,-8.53669 -3.27415,-18.15081 -4.01828,-28.84237 -0.66971,-10.77445 -1.00458,-22.54347 -1.00458,-35.30704 0,-17.57065 0.29765,-35.638572 0.89296,-54.203772 0.37206,-6.2989 3.05092,-10.15284 8.03657,-11.56181 4.46476,-1.32608 9.33879,-1.98913 14.62209,-1.98913 l 4.79962,-0.12432 c 6.10185,0 11.19913,0.37297 15.29183,1.11888 9.07834,1.82337 13.84075,6.25748 14.28723,13.30231 0.14882,4.39266 0.26045,9.15828 0.33486,14.29687 0.0744,5.0557 0.22324,11.147402 0.44647,18.275112 3.64624,0 7.5901,-0.0829 11.83163,-0.24864 h 2.12076 c 2.82768,0 5.17168,0.99457 7.03199,2.98369 1.86033,1.98913 3.23696,4.55844 4.12992,7.70788 0.96736,3.06658 1.45104,6.34034 1.45104,9.82133 0,5.22145 -1.11618,10.02852 -3.34857,14.42118 -2.15798,4.39266 -5.43213,6.79619 -9.82248,7.21059 l -3.01371,0.12433 c -4.688,0 -8.92953,-0.29008 -12.72457,-0.87025 l 0.11162,3.97825 -0.11162,9.19973 -0.11163,11.81046 c 0,4.39265 0.11162,7.62499 0.33486,9.697 0.5953,3.31521 1.45105,5.71874 2.56723,7.21059 1.11621,1.40897 2.30681,2.11345 3.57183,2.11345 2.00913,0 3.90666,-1.20176 5.69256,-3.6053 1.78591,-2.4864 2.97651,-5.42865 3.57182,-8.82675 0.59529,-3.3981 2.9393,-5.63587 7.03199,-6.71331 4.0927,-1.07745 8.63188,-1.61617 13.61753,-1.61617 l 4.68801,-0.12432 c 2.08356,0 4.01828,0.2072 5.80417,0.6216 1.86033,0.41441 3.4602,1.36753 4.79963,2.85937 1.33943,1.49185 2.344,3.72962 3.01372,6.71331 0.89294,4.55841 1.33943,8.78531 1.33943,12.6807 0,7.625 -1.48826,14.21398 -4.46476,19.76697 -2.90211,5.4701 -6.80877,9.98709 -11.72001,13.55094 -4.83682,3.56386 -10.34337,6.21604 -16.51963,7.95652 -6.10183,1.65761 -12.3153,2.48641 -18.64037,2.48641 z"
       id="path8" /><path
       style="font-size:229.565px;font-family:'Super Malibu';-inkscape-font-specification:'Super Malibu';fill:#4d4d4d;fill-rule:evenodd;stroke-width:24.1489;stroke-linecap:round;stroke-linejoin:round"
       d="m 335.91245,241.02636 c -5.06006,0 -9.97131,-0.78737 -14.73372,-2.36209 -4.688,-1.65761 -8.59466,-4.18546 -11.72,-7.58355 -3.05092,-3.48098 -4.79961,-7.91508 -5.2461,-13.30231 -2.45561,-37.1304 -3.68343,-68.25198 -3.68343,-93.36473 0,-14.08967 0.63252,-24.656922 1.89753,-31.701752 1.48824,-4.97283 5.61815,-8.95108 12.38971,-11.93478 6.84597,-3.06657 14.13842,-4.59986 21.87734,-4.59986 6.84596,0 12.98501,1.49186 18.41715,4.47554 5.50655,2.90082 8.70629,7.66645 9.59923,14.29687 0.66972,6.879072 1.1162,12.432052 1.33943,16.658952 2.08356,-8.03939 5.17169,-14.586952 9.26438,-19.642642 4.16712,-5.13859 8.89232,-8.90964 14.17562,-11.31318 5.2833,-2.40352 10.60382,-3.60529 15.96153,-3.60529 8.1854,0 15.36623,2.52785 21.54249,7.58356 6.25067,5.05569 9.52482,12.10052 9.82247,21.134492 0,7.70788 -1.97193,15.66439 -5.91581,23.86955 -3.94387,8.12228 -8.85511,15.00136 -14.73371,20.63721 -5.80419,5.63587 -11.60839,8.4538 -17.41258,8.4538 -5.72978,0 -10.49219,-3.14946 -14.28724,-9.44836 -1.93472,-2.81793 -4.46476,-4.2269 -7.5901,-4.2269 -1.63708,0 -3.27416,0.53872 -4.91123,1.61617 -1.56267,1.07745 -2.86489,2.85937 -3.90668,5.34577 -0.96737,2.48642 -1.45105,5.84308 -1.45105,10.06998 v 2.11345 c 0.37208,8.61955 0.66973,17.86072 0.89296,27.72348 l 0.44648,29.21534 c 0,4.14402 -1.56266,7.70787 -4.68799,10.69156 -3.12534,2.98369 -7.14363,5.26291 -12.05487,6.83763 -4.83683,1.57472 -9.93409,2.36209 -15.29181,2.36209 z"
       id="path7" /><path
       style="font-size:229.565px;font-family:'Super Malibu';-inkscape-font-specification:'Super Malibu';fill:#4d4d4d;fill-rule:evenodd;stroke-width:24.1489;stroke-linecap:round;stroke-linejoin:round"
       d="m 221.39128,240.28045 c -11.31073,0 -21.20762,-2.32066 -29.69067,-6.96196 -8.40864,-4.72419 -15.44063,-11.0231 -21.096,-18.89673 -5.58095,-7.95652 -9.78527,-16.86616 -12.61295,-26.72892 -2.75327,-9.94564 -4.12991,-20.09848 -4.12991,-30.45854 0,-10.44292 1.41385,-20.63721 4.24153,-30.58286 2.82768,-9.94564 7.032,-18.89672 12.61295,-26.853252 5.65537,-7.95651 12.68737,-14.29686 21.096,-19.02104 8.48304,-4.72419 18.34273,-7.08627 29.57905,-7.08627 11.38515,0 21.35645,2.36208 29.91391,7.08627 8.55747,4.64131 15.66388,10.89877 21.31924,18.77241 5.65538,7.790762 9.8969,16.617522 12.72458,26.480282 2.82768,9.86276 4.24153,19.97417 4.24153,30.33421 0,10.44293 -1.45105,20.67866 -4.35314,30.70719 -2.82769,9.94564 -7.10643,18.93817 -12.8362,26.97757 -5.65536,7.9565 -12.76178,14.3383 -21.31924,19.14536 -8.48304,4.72419 -18.37993,7.08628 -29.69068,7.08628 z m 0.22324,-56.69018 c 4.98565,0 9.48763,-2.52785 13.50591,-7.58356 4.0927,-5.13859 6.25067,-12.59782 6.47391,-22.3777 0,-6.71331 -0.89296,-12.2663 -2.67886,-16.65896 -1.78591,-4.39265 -4.12991,-7.66644 -7.03201,-9.82132 -2.82768,-2.23777 -5.80417,-3.35665 -8.92952,-3.35665 -4.83682,0 -9.26438,2.61073 -13.28267,7.83219 -3.94386,5.22145 -6.02742,13.05366 -6.25067,23.49658 0,6.38179 0.85574,11.68614 2.56724,15.91303 1.78591,4.22691 4.05549,7.37636 6.80876,9.44837 2.75328,2.07202 5.69258,3.10802 8.81791,3.10802 z"
       id="path6" /><path
       style="font-size:229.565px;font-family:'Super Malibu';-inkscape-font-specification:'Super Malibu';fill:#4d4d4d;fill-rule:evenodd;stroke-width:24.1489;stroke-linecap:round;stroke-linejoin:round"
       d="m 44.251835,245.12895 c -8.185398,0 -15.180193,-1.036 -20.984385,-3.10802 -5.804192,-1.98913 -8.929525,-5.09715 -9.376001,-9.32404 -1.339429,-27.68206 -2.009144,-56.15145 -2.009144,-85.40823 0,-18.48232 0.297651,-36.63312 0.892953,-54.452402 0.669713,-8.12229 4.427556,-14.33831 11.273526,-18.6481 6.920381,-4.39265 14.696509,-7.41779 23.328384,-9.07539 8.259812,-1.49185 15.329019,-2.23778 21.207622,-2.23778 26.044451,0 46.17309,6.38179 60.38592,19.14538 6.47389,5.80162 11.31073,12.34917 14.51047,19.642652 3.19974,7.29346 4.83683,14.83557 4.91124,22.62633 0,7.21059 -1.41385,14.21399 -4.24153,21.01018 -2.82768,6.79619 -7.03199,12.92934 -12.61294,18.39944 -5.50654,5.38723 -12.35251,9.69701 -20.53792,12.92934 -8.1854,3.14946 -17.598603,4.72418 -28.239618,4.72418 -2.306794,0 -4.688001,-0.0829 -7.14362,-0.24864 0.372063,17.40488 0.558095,29.13246 0.558095,35.18273 l -0.223238,15.91302 c -0.446476,4.64131 -3.943874,7.95653 -10.492192,9.94565 -6.548318,1.98913 -13.617526,2.9837 -21.207622,2.9837 z m 29.132576,-98.46189 c 6.399493,-0.99457 11.161906,-3.35665 14.287241,-7.08627 3.125333,-3.81251 4.688,-7.8322 4.688,-12.0591 0,-4.06114 -1.413842,-7.66644 -4.241525,-10.81589 -2.827683,-3.23233 -6.994795,-4.8485 -12.501335,-4.8485 l -2.344001,0.12432 c -0.148826,2.90082 -0.223238,6.13316 -0.223238,9.697 0,4.47554 0.07441,9.0754 0.223238,13.79958 z"
       id="text1" /><g
       id="g5"
       transform="matrix(0.19722364,0.00594763,-0.00519128,0.19443056,520.34724,164.28605)"
       style="fill:#4d4d4d"><path
         style="fill:#4d4d4d;stroke-width:1.07177"
         d="m 1255.0121,-541.64867 c -22.0037,-4.35382 -42.9186,-15.40853 -53.9873,-28.53538 l -4.4964,-5.33246 -8.27,-0.65331 c -15.9042,-1.25639 -29.1137,-7.27846 -39.5647,-18.0373 -7.4424,-7.66168 -9.0784,-9.89565 -13.1138,-17.9078 -5.638,-11.19414 -7.7658,-21.23765 -7.7526,-36.59395 0.036,-43.15937 23.5384,-72.81207 69.5709,-87.78008 5.1614,-1.67831 16.3777,-4.60792 24.925,-6.51027 31.3168,-6.97003 57.7072,-16.44101 86.2682,-30.95984 21.0821,-10.71703 39.8565,-23.27631 62.7289,-41.96306 29.5499,-24.14226 43.2344,-33.59333 56.1506,-38.77997 22.6837,-9.10893 42.6222,-5.89751 58.0708,9.35328 16.504,16.29261 18.7239,43.67736 5.8036,71.59175 -3.578,7.73037 -12.0521,21.00394 -17.0251,26.66798 l -3.4425,3.92071 3.9473,5.16285 c 13.3185,17.42016 14.2011,41.48285 2.2901,62.43461 -4.2601,7.49337 -16.6976,20.58251 -24.7662,26.06356 -6.3302,4.30015 -25.048,13.6597 -27.3176,13.6597 -0.8114,0 -1.2157,3.04071 -1.2157,9.14384 0,10.45594 -2.5588,19.57525 -7.5134,26.77651 -12.5443,18.23243 -39.2712,29.4575 -70.1385,29.4575 h -8.9037 l -4.3392,5.74713 c -7.2107,9.55054 -20.082,17.51662 -35.0379,21.68494 -7.6419,2.12986 -34.6966,3.00647 -42.8708,1.38906 z"
         id="path4" /><path
         style="fill:#ffffff;stroke-width:0.826904"
         d="m 1287.2967,-582.96671 c 6.2848,-1.23688 13.3761,-4.02413 16.5777,-6.51591 l 2.0099,-1.56438 -10.0983,-1.8995 c -5.5544,-1.04473 -11.483,-2.42416 -13.1752,-3.06541 -5.4698,-2.07286 -6.6587,-7.72458 -2.4606,-11.69787 2.9128,-2.75695 2.7283,-2.75874 16.9467,0.16391 25.4102,5.2233 50.4932,4.24087 64.8444,-2.53981 10.0658,-4.7558 15.8451,-11.97892 15.8125,-19.76244 -0.023,-4.33061 0.2194,-4.22965 -7.237,-3.07409 -2.8029,0.43445 -9.9497,1.14787 -15.8822,1.58544 -9.3058,0.68639 -11.1396,0.6215 -13.3626,-0.47315 -4.7347,-2.33169 -5.8441,-7.55237 -2.3612,-11.11147 1.7077,-1.74494 2.973,-2.10909 8.7009,-2.50386 28.7816,-1.98348 44.4204,-5.9555 58.5523,-14.87107 19.7789,-12.47829 25.9668,-32.7083 14.2874,-46.70953 -1.1406,-1.36757 -1.638,-1.13844 -7.898,3.63638 -7.6872,5.86376 -18.9228,12.57695 -29.124,17.40177 -9.9858,4.72302 -25.6434,10.33999 -28.7885,10.32762 -3.7367,-0.0149 -6.8386,-3.12892 -6.8544,-6.88191 -0.025,-5.20099 0.4924,-5.59448 13.1312,-10.04628 8.0684,-2.842 24.3786,-10.67904 31.5726,-15.17071 27.9202,-17.43241 44.6347,-39.98382 44.5436,-60.09911 -0.044,-10.6935 -3.917,-17.25498 -12.6847,-21.5148 -12.8635,-6.24995 -26.5898,-1.42178 -52.8722,18.59779 -5.0368,3.83682 -13.352,10.17598 -18.4773,14.08697 -31.735,24.21529 -71.8343,41.96591 -115.5685,51.15812 -7.5816,1.5934 -17.0105,3.91816 -20.9538,5.16609 -28.6025,9.05194 -42.8838,26.17993 -42.7783,51.30566 0.09,21.35958 11.7304,36.46391 30.58,39.67895 9.0045,1.5359 20.3477,-1.35155 28.1029,-7.15386 9.9618,-7.45299 11.3349,-23.54672 2.8127,-32.96172 -4.0656,-4.49142 -8.687,-6.60129 -16.4408,-7.50608 -5.5437,-0.64696 -6.7418,-1.07979 -8.7683,-3.16766 -2.6598,-2.74021 -2.921,-4.66069 -1.0912,-8.02879 1.8846,-3.46959 6.3436,-4.4885 14.1956,-3.24398 13.4383,2.12992 23.5916,9.30966 29.3804,20.77536 2.7365,5.42003 3.1551,7.07462 3.5346,13.96888 0.4785,8.69253 -0.7664,14.41453 -4.6045,21.16257 -2.8259,4.96859 -11.3611,12.66838 -17.0478,15.37944 -4.4688,2.13029 -4.495,2.16481 -2.9335,3.83528 4.5497,4.86682 17.7299,10.98223 28.3956,13.17503 7.3127,1.50349 20.2669,1.57801 27.4819,0.1582 z"
         id="path5" /></g><path
       style="font-size:229.565px;font-family:'Super Malibu';-inkscape-font-specification:'Super Malibu';fill:#ffffff;fill-rule:evenodd;stroke-width:5.7541;stroke-linecap:round;stroke-linejoin:round"
       d="m 935.96416,100.59784 c -2.48858,-0.59321 -4.45565,-1.741372 -5.90121,-3.444472 -1.42727,-1.70309 -2.14091,-3.31051 -2.14091,-4.82224 0,-0.95679 0.29278,-1.7318 0.87832,-2.32501 0.58554,-0.59322 1.50961,-0.91852 2.7722,-0.97593 0.69533,0 1.39982,0.22963 2.11347,0.68889 0.73192,0.45926 1.39066,1.19599 1.97621,2.2102 1.55535,-2.58335 3.37603,-3.87503 5.46205,-3.87503 1.17109,0.0191 2.04941,0.34446 2.63495,0.97594 0.58555,0.61235 0.87832,1.39691 0.87832,2.35371 0,1.01421 -0.32937,2.11452 -0.98811,3.30094 -0.64044,1.18643 -1.6011,2.30589 -2.88199,3.35835 -1.28087,1.05248 -2.88197,1.90402 -4.8033,2.554652 z"
       id="path15" /></g></svg>
